<svg xmlns="http://www.w3.org/2000/svg" viewBox="0 0 32 32" width="32" height="32">
  <defs>
    <linearGradient id="logoGradient" x1="0%" y1="0%" x2="100%" y2="100%">
      <stop offset="0%" style="stop-color:#3B82F6;stop-opacity:1" />
      <stop offset="50%" style="stop-color:#8B5CF6;stop-opacity:1" />
      <stop offset="100%" style="stop-color:#06B6D4;stop-opacity:1" />
    </linearGradient>
  </defs>
  
  <!-- Background circle -->
  <circle cx="16" cy="16" r="15" fill="url(#logoGradient)" opacity="0.1"/>
  
  <!-- Main DevOps gear -->
  <g transform="translate(16, 16)">
    <!-- Outer gear -->
    <circle cx="0" cy="0" r="12" fill="url(#logoGradient)" stroke="url(#logoGradient)" stroke-width="1"/>
    <circle cx="0" cy="0" r="7" fill="white"/>
    
    <!-- Gear teeth -->
    <rect x="-1" y="-15" width="2" height="4" fill="url(#logoGradient)"/>
    <rect x="-1" y="11" width="2" height="4" fill="url(#logoGradient)"/>
    <rect x="-15" y="-1" width="4" height="2" fill="url(#logoGradient)"/>
    <rect x="11" y="-1" width="4" height="2" fill="url(#logoGradient)"/>
    
    <!-- Inner gear -->
    <circle cx="0" cy="0" r="4" fill="url(#logoGradient)"/>
    
    <!-- DevOps arrows -->
    <path d="M-7,-7 L-3,-3 M-3,-3 L3,3 M3,3 L7,7" stroke="white" stroke-width="1" fill="none" stroke-linecap="round"/>
    <path d="M7,-7 L3,-3 M3,-3 L-3,3 M-3,3 L-7,7" stroke="white" stroke-width="1" fill="none" stroke-linecap="round"/>
  </g>
  
  <!-- Container symbols -->
  <rect x="6" y="24" width="4" height="4" fill="url(#logoGradient)" opacity="0.7" rx="1"/>
  <rect x="12" y="24" width="4" height="4" fill="url(#logoGradient)" opacity="0.7" rx="1"/>
  <rect x="18" y="24" width="4" height="4" fill="url(#logoGradient)" opacity="0.7" rx="1"/>
  <rect x="24" y="24" width="4" height="4" fill="url(#logoGradient)" opacity="0.7" rx="1"/>
</svg>
