<svg xmlns="http://www.w3.org/2000/svg" viewBox="0 0 100 100" width="100" height="100">
  <defs>
    <linearGradient id="logoGradient" x1="0%" y1="0%" x2="100%" y2="100%">
      <stop offset="0%" style="stop-color:#3B82F6;stop-opacity:1" />
      <stop offset="50%" style="stop-color:#8B5CF6;stop-opacity:1" />
      <stop offset="100%" style="stop-color:#06B6D4;stop-opacity:1" />
    </linearGradient>
  </defs>
  
  <!-- Background circle -->
  <circle cx="50" cy="50" r="48" fill="url(#logoGradient)" opacity="0.1"/>
  
  <!-- Main DevOps gear -->
  <g transform="translate(50, 50)">
    <!-- Outer gear -->
    <circle cx="0" cy="0" r="25" fill="url(#logoGradient)" stroke="url(#logoGradient)" stroke-width="2"/>
    <circle cx="0" cy="0" r="15" fill="white"/>
    
    <!-- Gear teeth -->
    <rect x="-2" y="-30" width="4" height="8" fill="url(#logoGradient)"/>
    <rect x="-2" y="22" width="4" height="8" fill="url(#logoGradient)"/>
    <rect x="-30" y="-2" width="8" height="4" fill="url(#logoGradient)"/>
    <rect x="22" y="-2" width="8" height="4" fill="url(#logoGradient)"/>
    
    <!-- Inner gear -->
    <circle cx="0" cy="0" r="8" fill="url(#logoGradient)"/>
    
    <!-- DevOps arrows -->
    <path d="M-15,-15 L-5,-5 M-5,-5 L5,5 M5,5 L15,15" stroke="white" stroke-width="2" fill="none" stroke-linecap="round"/>
    <path d="M15,-15 L5,-5 M5,-5 L-5,5 M-5,5 L-15,15" stroke="white" stroke-width="2" fill="none" stroke-linecap="round"/>
  </g>
  
  <!-- Container symbols -->
  <rect x="20" y="70" width="12" height="12" fill="url(#logoGradient)" opacity="0.7" rx="2"/>
  <rect x="35" y="70" width="12" height="12" fill="url(#logoGradient)" opacity="0.7" rx="2"/>
  <rect x="50" y="70" width="12" height="12" fill="url(#logoGradient)" opacity="0.7" rx="2"/>
  <rect x="65" y="70" width="12" height="12" fill="url(#logoGradient)" opacity="0.7" rx="2"/>
</svg>
